<mxfile host="app.diagrams.net" modified="2023-09-30T17:41:04.981Z" agent="Mozilla/5.0 (Windows NT 10.0; Win64; x64) AppleWebKit/537.36 (KHTML, like Gecko) Chrome/117.0.0.0 Safari/537.36" version="22.0.0" etag="1wCsB5YfQCqH9Coo5Xh3" type="github">
  <diagram name="페이지-1" id="P46IyFAvZN8z1q2ODT6U">
    <mxGraphModel>
      <root>
        <mxCell id="0" />
        <mxCell id="1" parent="0" />
      </root>
    </mxGraphModel>
  </diagram>
</mxfile>
